<svg viewBox="-120 -120 240 240" fill="none" xmlns="http://www.w3.org/2000/svg">
                              <path d="M 78.45079213557653,0 C 75.97593556301446,17.764607965193637 66.78512073013941,16.362037398735257 56.58869399939213,32.671497713638395 C 46.392267268644844,48.98095802854154 51.81225871243542,58.657321653783455 37.66508521258739,65.23784125961255 C 23.517911712739362,71.81836086544165 17.392822303004426,61.48724485094025 3.612314709318867e-15,58.99357613695477 C -17.39282230300442,56.499907422969294 -14.438430679308702,59.926536809393745 -31.906203999430303,55.26316640367063 C -49.373977319551905,50.59979599794752 -57.09147129827525,54.15588611497997 -69.8710932804864,40.340094514062315 C -82.65071526269756,26.52430291314466 -87.09870865845394,17.81791260117925 -83.0246919282749,1.0167592322015696e-14 C -78.95067519809587,-17.817912601179227 -62.06818065947077,-9.691384478626542 -53.57502635977026,-30.931555890654632 C -45.081872060069756,-52.171727302682726 -62.445831319415454,-69.32195889715305 -49.05207472947289,-84.96068564811235 C -35.65831813953033,-100.59941239907164 -20.56605017436276,-100.34536190554091 -1.7173184632102075e-14,-93.48646289449178 C 20.566050174362726,-86.62756388344265 16.590095895567984,-71.29997179075474 33.21212596797809,-57.52508960391583 C 49.834156040388194,-43.75020741707692 55.1784537477408,-52.76820654811511 66.4881202896404,-38.38693414713615 C 77.79778683154002,-24.005661746157195 80.92564870813861,-17.764607965193637 78.45079213557653,0 Z" fill="#16a34a" />
                              </svg>
