<?xml version="1.0" encoding="utf-8"?>
<!-- Generator: Adobe Illustrator 27.4.1, SVG Export Plug-In . SVG Version: 6.00 Build 0)  -->
<svg version="1.1" id="Layer_1" xmlns="http://www.w3.org/2000/svg" xmlns:xlink="http://www.w3.org/1999/xlink" x="0px" y="0px"
	 viewBox="0 0 1500 1500" style="enable-background:new 0 0 1500 1500;" xml:space="preserve">
<rect id="XMLID_348_" x="1394.13" y="780.93" width="63.64" height="351.95"/>
<path id="XMLID_345_" d="M1272.9,879.05V907c-11.25-11.49-23.71-20.08-37.02-25.89c-13.31-5.81-27.71-8.59-42.83-8.59
	c-33.15,0-61.34,12.46-84.45,37.51c-23.11,25.04-34.72,57.23-34.72,96.43c0,37.75,11.98,69.45,35.93,94.85
	c23.83,25.41,52.27,38.11,85.05,38.11c14.64,0,28.19-2.54,40.65-7.74c12.58-5.2,25.04-13.79,37.38-25.53v26.74h63.76V879.05H1272.9z
	 M1255.97,1060.17c-13.19,14.03-29.76,20.93-49.73,20.93c-19.48,0-35.69-7.02-49-21.17c-13.31-14.16-19.84-32.3-19.84-54.2
	c0-21.78,6.41-39.68,19.48-53.6c13.07-13.91,29.4-20.81,49.12-20.81c20.08,0,36.78,6.78,49.97,20.45
	c13.19,13.79,19.84,31.7,19.84,53.72C1275.81,1028.1,1269.15,1046.25,1255.97,1060.17z"/>
<path id="XMLID_342_" d="M1045.33,1096.46V878.93h-63.52V907c-13.07-12.22-26.13-21.05-39.08-26.5
	c-12.95-5.32-26.74-7.98-41.38-7.98c-31.21,0-58.19,11.01-80.82,33.15c-24.92,24.32-37.26,56.74-37.26,97.03
	c0,37.63,11.74,68.72,35.21,93.28c23.47,24.68,52.27,36.9,86.38,36.9c15.49,0,29.4-2.42,41.74-7.38
	c12.34-4.84,24.08-12.82,35.21-24.08c0,20.57-2.06,68.6-2.54,82.88c-0.48,14.4-8.83,35.93-9.8,38.11
	c-33.15,50.69-105.74,75.01-186.2,81.91c-187.17,15.85-329.33-43.68-338.64-47.79c9.07,2.78,161.88,48.15,365.02,12.1
	c46.58-8.35,109.74-26.86,149.06-54.44c-112.28,10.77-246.57-27.46-391.63-34.6c-243.18-11.98-524.84,27.83-524.84,27.83
	s258.79,154.98,524.84,159.1c361.63,5.69,441.12-105.98,453.82-122.32C1050.17,1206.32,1045.33,1121.26,1045.33,1096.46z
	 M965.84,1055.45c-12.83,13.19-29.16,19.84-48.88,19.84c-20.2,0-37.02-6.78-50.45-20.33c-13.31-13.55-19.96-30.85-19.96-52.02
	c0-20.33,6.41-37.38,19.6-50.69c13.07-13.55,29.64-20.33,49.6-20.33c20.45,0,37.14,6.65,49.97,19.84
	c12.95,13.31,19.36,30.49,19.36,51.66C985.08,1024.84,978.67,1042.26,965.84,1055.45z"/>
<rect id="XMLID_341_" x="672.57" y="879.05" width="63.76" height="253.83"/>
<path id="XMLID_338_" d="M288.68,910.02c-23.23-25.04-51.3-37.51-84.45-37.51c-15.24,0-29.64,2.78-42.95,8.59
	c-13.43,5.81-25.89,14.4-37.39,25.89V780.93H60.62v351.95h63.28v-26.74c12.46,11.74,24.92,20.33,37.63,25.53
	c12.58,5.2,26.13,7.74,40.77,7.74c32.79,0,61.22-12.7,85.18-38.11c23.96-25.41,35.93-57.11,35.93-94.85
	C323.4,967.25,311.91,935.06,288.68,910.02z M240.04,1059.92c-13.31,14.16-29.76,21.17-49.12,21.17c-20.08,0-36.78-6.9-49.97-20.93
	c-13.19-13.91-19.84-32.06-19.84-54.69c0-22.02,6.65-39.93,19.84-53.72c13.19-13.67,29.88-20.45,49.97-20.45
	c19.84,0,36.42,6.9,49.48,20.81c13.07,13.91,19.6,31.82,19.6,53.6C260,1027.62,253.35,1045.77,240.04,1059.92z"/>
<path id="XMLID_335_" d="M551.46,879.05V907c-11.37-11.49-23.71-20.08-37.02-25.89c-13.43-5.81-27.71-8.59-42.95-8.59
	c-33.03,0-61.22,12.46-84.33,37.51c-23.11,25.04-34.72,57.23-34.72,96.43c0,37.75,11.98,69.45,35.93,94.85
	c23.83,25.41,52.27,38.11,85.05,38.11c14.64,0,28.19-2.54,40.65-7.74c12.46-5.2,24.92-13.79,37.39-25.53v26.74h63.76V879.05H551.46z
	 M534.52,1060.17c-13.19,14.03-29.76,20.93-49.73,20.93c-19.48,0-35.81-7.02-49-21.17c-13.31-14.16-19.96-32.3-19.96-54.2
	c0-21.78,6.53-39.68,19.6-53.6c13.07-13.91,29.4-20.81,49.12-20.81c20.08,0,36.78,6.78,49.97,20.45
	c13.19,13.79,19.72,31.7,19.72,53.72C554.24,1028.1,547.71,1046.25,534.52,1060.17z"/>
<path id="XMLID_301_" d="M985.8,441.32l-2.06-5.56l-30,9.07c-23.71-95.7-78.52-171.08-158.49-218.38l-56.62-33.27l-6.53,29.64
	c-4.23-4.23-8.23-7.86-11.74-11.25l-44.28-39.93l-10.53,18.51c-1.57-2.78-3.15-5.81-4.96-8.83l-26.74-48.03l-42.59,32.18
	c-1.57,0.73-19.12,14.64-46.58,37.75c-31.21,26.25-77.19,68.6-115.54,133.21c-28.07,47.18-48.88,108.04-59.04,171.92l-25.53-4.48
	l-0.97,6.05c0,0.48-8.59,56.14,27.71,139.98c8.35,19.12,20.33,38.11,37.63,59.89c32.55,40.53,71.26,71.87,115.3,93.28
	c43.8,21.17,92.92,32.67,146.15,34.12c2.42,0.12,5.44,0.12,7.14,0.12l43.07-1.81c65.21-7.38,122.92-34.84,176.52-83.96
	c17.06-15.61,38.59-36.66,53.48-61.1C1028.03,563.64,987.5,446.28,985.8,441.32z M482.38,604.65l-44.04,1.45l0.73,6.65
	c3.02,26.01,9.44,50.57,19.24,72.96c2.42,5.69,5.2,11.37,8.11,16.82c-6.65-6.9-13.19-14.28-19.36-22.02
	c-14.4-17.91-24.68-34.36-31.82-50.69l-0.48-1.21c-6.05-14.16-14.03-37.87-18.03-61.34c-0.36-1.82-0.6-3.63-0.85-5.81
	c0.36,0.12,0.73,0.24,1.21,0.36c0.85,0.12,1.81,0.36,2.42,0.48c0.61,0.12,1.21,0.24,2.9,0.73c0.85,0.24,1.57,0.36,1.81,0.48
	l6.29,1.45c18.87,4.6,46.7,12.58,73.44,24.44C483.35,594.37,482.86,599.45,482.38,604.65z M634.34,786.73
	c-7.38-1.94-14.4-4.36-21.05-7.02c-21.9-8.71-42.47-21.41-60.86-37.63c-17.91-15.73-38.11-42.83-50.45-67.63
	c-5.32-10.89-8.71-20.45-9.56-27.34c9.19,0.24,18.63,1.21,28.31,3.15c20.33,3.75,40.05,10.65,58.92,20.69
	c0.73,0.36,1.45,0.85,2.3,1.33l0.97,0.6c44.52,25.65,78.04,66.06,94.37,113.61c0.36,0.85,0.85,3.02,1.45,7.74
	C663.25,793.15,648.37,790.61,634.34,786.73z M490.6,582.27c3.39,1.33,6.9,2.78,10.28,4.36c0,0,0,0,0,0.12
	C497.5,585.17,494.11,583.72,490.6,582.27z M682.85,715.11c-15-16.45-33.39-41.26-38.96-75.5c-2.78-16.82-2.3-34.84,1.57-53.6
	c12.95,14.64,23.59,33.39,30.25,53.48C683.94,663.93,686.24,689.34,682.85,715.11z M696.04,594.61
	c-4.6-10.04-11.74-25.16-21.05-40.77c-11.74-19.48-24.08-34.48-36.66-44.64l-3.27-2.66l-2.9,3.15
	c-10.16,10.89-18.27,26.74-23.59,45.49c-7.02,24.68-9.07,53.6-6.05,83.72c0,1.21,0.12,2.42,0.36,3.63c-4.6-2.66-9.32-5.2-14.52-7.86
	c-18.63-9.32-38.47-16.33-59.04-20.69c-0.48-0.12-1.09-0.24-1.57-0.36l0.73-7.26c2.18-20.81,5.69-40.77,10.65-59.16
	c25.04-94.49,79.49-135.02,115.54-161.88l1.21-0.85c3.75,8.47,14.16,34.48,37.51,92.31l2.3,6.05l4.84-4.36
	c5.32-4.72,17.42-23.59,24.44-49.12l0.12,0.12c2.06,1.81,4.11,3.51,5.93,5.2l1.09,1.09c1.94,1.81,3.75,3.63,5.56,5.44l1.09,1.21
	c27.22,27.71,46.46,59.77,57.23,95.22c4.72,15.61,7.99,32.06,9.44,49l0.6,7.62h0.48l-34,24.32c-0.48-36.78-10.4-63.64-16.21-76.34
	c-2.06-4.36-9.2-18.87-14.88-21.05l-3.27-1.33l-2.06,2.78c-5.69,7.5-10.89,15.24-15.49,22.99l-1.33,2.3
	c-8.83,15-16.33,30.73-22.5,48.15C696.52,595.58,696.28,595.09,696.04,594.61z M719.87,677l-1.57,2.3
	c0.36-15.97,2.3-31.09,5.93-46.34c2.78-11.98,6.53-23.59,11.49-35.45c1.21,7.26,2.66,18.15,3.27,29.28
	c0.6,10.4,0.48,18.51-0.61,23.47c-0.12,0.97-0.36,1.69-0.85,2.18l-1.33,1.82c-3.39,4.84-6.78,9.56-10.28,14.4
	C723.99,671.44,721.93,674.22,719.87,677z M833.72,736.77h-0.12c-4.36,4.6-9.19,9.07-14.4,13.19
	c-27.22,22.26-60.86,36.66-97.76,41.74c0-0.12,0-0.36,0.12-0.48c1.81-17.06,10.65-75.5,43.43-111.07
	c41.01-44.76,84.45-70.29,129.21-76.1C891.92,620.62,879.82,689.83,833.72,736.77z M811.1,455.47c1.45-3.99,5.2-13.43,7.26-18.39
	l0.48-1.33c18.15,11.61,33.27,32.06,45.01,60.98c4.72,11.74,8.71,24.32,11.86,37.51c2.54,10.89,4.48,21.9,5.32,30.37l-31.58,8.59
	c-0.12-1.21-0.24-2.54-0.36-3.87c-1.33-15.85-5.44-35.09-11.49-54.32C832.63,498.91,823.92,475.8,811.1,455.47z M903.41,468.66
	c-20.57-41.74-53.84-76.71-101.87-106.83l-8.23-5.08l-1.09,9.56c-0.36,2.9-1.57,8.95-2.78,14.28l-1.82,9.32
	c-1.57,9.8-3.51,18.15-5.81,25.77l-3.99-4.11c-7.98-7.86-16.09-15.97-24.92-23.59c-4.23-3.63-8.71-7.5-13.91-12.22
	c-8.47-7.74-17.3-15.61-26.25-22.26l-7.02-5.32l-2.66,8.47c-0.85,2.9-2.54,7.62-4.23,12.34c-6.65-17.54-17.18-44.77-20.33-52.63
	l-2.66-6.41l-6.17,3.51c-92.07,54.69-154.38,112.64-178.7,230.96c-26.98-10.89-53.6-18.39-72.23-22.99
	c8.83-60.25,27.95-117.12,53.6-160.31c34.6-58.07,76.46-96.79,105.02-120.74c22.62-19,35.45-29.28,40.65-33.27
	c25.41,45.73,37.26,68.12,42.83,78.88l3.87,7.5l24.32-43.31c17.54,16.21,42.22,43.07,54.44,56.26c2.78,3.02,5.32,5.81,7.74,8.35
	l4.6,4.96l2.78-6.05c6.9-14.52,12.22-34.72,14.28-43.07c69.33,42.22,115.9,109.86,134.66,195.64
	C906.56,466.85,905.11,467.69,903.41,468.66z M937.29,611.18c3.27-25.65,2.78-44.4,1.69-47.91c-0.85-2.9-3.02-4.72-5.57-4.96
	c-3.02-0.24-4.84-0.36-6.9-0.48c-1.09-16.21-3.51-31.82-7.38-46.58c7.38-4.11,14.88-7.99,22.5-11.25c2.3-1.09,4.36-1.94,6.29-2.66
	C952.77,539.32,949.26,576.94,937.29,611.18z"/>
</svg>
